<svg width="16" height="15" viewBox="0 0 16 15" fill="none" xmlns="http://www.w3.org/2000/svg">
<path id="Star 5" d="M7.04894 1.43975C7.3483 0.518435 8.6517 0.518435 8.95106 1.43975L10.0206 4.73154C10.1545 5.14357 10.5385 5.42253 10.9717 5.42253H14.4329C15.4016 5.42253 15.8044 6.66214 15.0207 7.23154L12.2205 9.26598C11.87 9.52063 11.7234 9.972 11.8572 10.384L12.9268 13.6758C13.2261 14.5971 12.1717 15.3633 11.388 14.7938L8.58778 12.7594C8.2373 12.5048 7.7627 12.5048 7.41221 12.7594L4.61204 14.7938C3.82833 15.3633 2.77385 14.5971 3.0732 13.6758L4.14277 10.384C4.27665 9.972 4.12999 9.52063 3.7795 9.26598L0.979333 7.23154C0.195619 6.66214 0.598395 5.42253 1.56712 5.42253H5.02832C5.46154 5.42253 5.8455 5.14357 5.97937 4.73154L7.04894 1.43975Z" fill="#FFEAF1"/>
</svg>
