<svg width="38" height="38" viewBox="0 0 38 38" fill="none" xmlns="http://www.w3.org/2000/svg">
<circle cx="19" cy="19" r="19" transform="rotate(-180 19 19)" fill="#D03664"/>
<path d="M16.74 20.54C16.4467 20.54 16.2 20.4467 16 20.26C15.8133 20.0733 15.72 19.8333 15.72 19.54C15.72 19.2333 15.8133 18.9867 16 18.8C16.2 18.6133 16.4467 18.52 16.74 18.52H21.2C21.4933 18.52 21.7333 18.6133 21.92 18.8C22.1067 18.9867 22.2 19.2333 22.2 19.54C22.2 19.8333 22.1067 20.0733 21.92 20.26C21.7333 20.4467 21.4933 20.54 21.2 20.54H16.74Z" fill="white"/>
</svg>
