<svg width="31" height="21" viewBox="0 0 31 21" fill="none" xmlns="http://www.w3.org/2000/svg">
<g id="&#209;&#129;omparison">
<path id="Vector 4" d="M4.26962 14.2939H2.52521C1.80504 14.2939 1.33715 15.0275 1.73605 15.6271C2.98669 17.507 5.15852 19.4115 7.53923 19.4115C9.91995 19.4115 12.0918 17.507 13.3424 15.6271C13.7413 15.0275 13.2734 14.2939 12.5533 14.2939H10.8089M4.26962 14.2939H7.53923H10.8089M4.26962 14.2939L6.60966 8.3929C6.94349 7.55107 8.13498 7.55107 8.46881 8.3929L10.8089 14.2939" stroke="#A5A5A5" stroke-width="2"/>
<path id="Vector 8" d="M20.191 14.2939H18.4466C17.7264 14.2939 17.2585 15.0275 17.6574 15.6271C18.9081 17.507 21.0799 19.4115 23.4606 19.4115C25.8413 19.4115 28.0132 17.507 29.2638 15.6271C29.6627 15.0275 29.1948 14.2939 28.4746 14.2939H26.7302M20.191 14.2939H23.4606H26.7302M20.191 14.2939L22.531 8.3929C22.8649 7.55107 24.0564 7.55107 24.3902 8.3929L26.7302 14.2939" stroke="#A5A5A5" stroke-width="2"/>
<circle id="Ellipse 6" cx="15.7848" cy="3.41177" r="2.41177" stroke="#A5A5A5" stroke-width="2"/>
<path id="Vector 6" d="M6.68652 4.89548L12.9414 3.75822" stroke="#A5A5A5" stroke-width="2" stroke-linecap="round"/>
<path id="Vector 7" d="M18.6279 3.75822L24.3142 4.89548" stroke="#A5A5A5" stroke-width="2" stroke-linecap="round"/>
</g>
</svg>
